<?xml version="1.0" encoding="UTF-8"?>
<svg width="120px" height="120px" viewBox="0 0 120 120" version="1.1" xmlns="http://www.w3.org/2000/svg" xmlns:xlink="http://www.w3.org/1999/xlink">
    <!-- Generator: Sketch 46.2 (44496) - http://www.bohemiancoding.com/sketch -->
    <title>Images/ic_subs_unlimit</title>
    <desc>Created with Sketch.</desc>
    <defs></defs>
    <g id="Symbols" stroke="none" stroke-width="1" fill="none" fill-rule="evenodd">
        <g id="Images/ic_subs_unlimit">
            <rect id="Rectangle" fill-opacity="0" fill="#FFFFFF" x="0" y="0" width="120" height="120"></rect>
            <circle id="Oval-7" fill="#2CAF5C" cx="60" cy="60" r="52.5"></circle>
            <path d="M38.75,87.5 C24.9428813,87.5 13.75,76.3071187 13.75,62.5 C13.75,48.6928813 24.9428813,37.5 38.75,37.5 C52.5571187,37.5 63.75,48.6928813 63.75,62.5 C63.75,76.3071187 52.5571187,87.5 38.75,87.5 Z M38.75,77.5 C47.0342712,77.5 53.75,70.7842712 53.75,62.5 C53.75,54.2157288 47.0342712,47.5 38.75,47.5 C30.4657288,47.5 23.75,54.2157288 23.75,62.5 C23.75,70.7842712 30.4657288,77.5 38.75,77.5 Z" id="Combined-Shape" fill-opacity="0.26" fill="#000000"></path>
            <path d="M40,85 C26.1928813,85 15,73.8071187 15,60 C15,46.1928813 26.1928813,35 40,35 C53.8071187,35 65,46.1928813 65,60 C65,73.8071187 53.8071187,85 40,85 Z M40,75 C48.2842712,75 55,68.2842712 55,60 C55,51.7157288 48.2842712,45 40,45 C31.7157288,45 25,51.7157288 25,60 C25,68.2842712 31.7157288,75 40,75 Z" id="Combined-Shape-Copy" fill="#FFFFFF"></path>
            <path d="M60.5495211,45.3609781 C65.1085847,40.5213682 71.5764532,37.5 78.75,37.5 C92.5571187,37.5 103.75,48.6928813 103.75,62.5 C103.75,76.3071187 92.5571187,87.5 78.75,87.5 C65.9790628,87.5 55.4447058,77.9240623 53.9354903,65.5607484 C54.6222775,63.8411592 55,61.9646905 55,60 L64.0877101,65.6798188 C65.5461764,72.4367504 71.5567955,77.5 78.75,77.5 C87.0342712,77.5 93.75,70.7842712 93.75,62.5 C93.75,54.2157288 87.0342712,47.5 78.75,47.5 C75.2141816,47.5 71.9641009,48.7233886 69.3999576,50.7699661 L63.75,46.25 L60.5495211,45.3609781 Z" id="Combined-Shape" fill-opacity="0.26" fill="#000000"></path>
            <polygon id="Path-13-Copy" fill-opacity="0.26" fill="#000000" points="60.625 38.125 74.375 55.625 60.625 55.625 57.5 51.875"></polygon>
            <path d="M65.196352,39.8521753 C69.3405071,36.8021335 74.4597981,35 80,35 C93.8071187,35 105,46.1928813 105,60 C105,73.8071187 93.8071187,85 80,85 C66.1928813,85 55,73.8071187 55,60 L65,60 C65,68.2842712 71.7157288,75 80,75 C88.2842712,75 95,68.2842712 95,60 C95,51.7157288 88.2842712,45 80,45 C76.7918539,45 73.8189396,46.0071468 71.3801869,47.7225106 L75.625,53.125 L61.875,53.125 L58.75,49.375 L61.875,35.625 L65.1963517,39.8521749 Z" id="Combined-Shape" fill="#FFFFFF"></path>
        </g>
    </g>
</svg>