<?xml version="1.0" encoding="UTF-8"?>
<svg width="120px" height="120px" viewBox="0 0 120 120" version="1.1" xmlns="http://www.w3.org/2000/svg" xmlns:xlink="http://www.w3.org/1999/xlink">
    <!-- Generator: Sketch 46.2 (44496) - http://www.bohemiancoding.com/sketch -->
    <title>Images/img_unlock_features</title>
    <desc>Created with Sketch.</desc>
    <defs></defs>
    <g id="Symbols" stroke="none" stroke-width="1" fill="none" fill-rule="evenodd">
        <g id="Images/img_unlock_features">
            <polygon id="Rectangle-9" fill-opacity="0" fill="#FFFFFF" points="0 0 120 0 120 120 0 120"></polygon>
            <path d="M58,42 C58,26.536027 70.536027,14 86,14 C101.463973,14 114,26.536027 114,42 L106,42 C106,30.954305 97.045695,22 86,22 C74.954305,22 66,30.954305 66,42 L58,42 Z M58,42 L66,42 L66,63 L58,63 L58,42 Z M106,42 L114,42 L114,54 L106,54 L106,42 Z" id="Combined-Shape" fill="#8F8F8F"></path>
            <path d="M56,42 C56,26.536027 68.536027,14 84,14 C99.463973,14 112,26.536027 112,42 L104,42 C104,30.954305 95.045695,22 84,22 C72.954305,22 64,30.954305 64,42 L56,42 Z M56,42 L64,42 L64,63 L56,63 L56,42 Z M104,42 L112,42 L112,54 L104,54 L104,42 Z M104,42 L104,48 L108,48 L108,42 L104,42 Z" id="Combined-Shape-Copy" fill="#D0D0D0"></path>
            <polygon id="Rectangle-5" fill="#BA8F25" points="59 63 72 63 72 106 59 106"></polygon>
            <polygon id="Rectangle-5-Copy-2" fill="#F0B517" points="21 63 59 63 59 106 21 106"></polygon>
            <polygon id="Rectangle-5-Copy" fill="#F4D500" points="8 63 21 63 21 106 8 106"></polygon>
            <path d="M36.6533889,88.4262774 C32.7763517,87.0497474 30,83.3490996 30,79 C30,73.4771525 34.4771525,69 40,69 C45.5228475,69 50,73.4771525 50,79 C50,83.3490996 47.2236483,87.0497474 43.3466111,88.4262774 L45,100 L35,100 L36.6533889,88.4262774 L36.6533889,88.4262774 Z" id="Combined-Shape" fill="#D3A11E"></path>
            <path d="M13,68 L13,75 C13,75.5522847 12.5522847,76 12,76 C11.4477153,76 11,75.5522847 11,75 L11,67 C11,66.7238576 11.1119288,66.4738576 11.2928932,66.2928932 C11.4738576,66.1119288 11.7238576,66 12,66 L16,66 C16.5522847,66 17,66.4477153 17,67 C17,67.5522847 16.5522847,68 16,68 L13,68 Z M19,66 L21,66 C21.5522847,66 22,66.4477153 22,67 C22,67.5522847 21.5522847,68 21,68 L19,68 C18.4477153,68 18,67.5522847 18,67 C18,66.4477153 18.4477153,66 19,66 Z" id="Combined-Shape" fill="#FFFFFF"></path>
            <path d="M38.9235217,85.9177399 C35.5685916,85.3999219 33,82.4999243 33,79 C33,75.1340068 36.1340068,72 40,72 C43.8659932,72 47,75.1340068 47,79 C47,82.4999243 44.4314084,85.3999219 41.0764783,85.9177399 L42,97 L38,97 L38.9235217,85.9177399 L38.9235217,85.9177399 Z" id="Combined-Shape" fill="#BB8F26"></path>
        </g>
    </g>
</svg>