<?xml version="1.0" encoding="UTF-8"?>
<svg width="120px" height="120px" viewBox="0 0 120 120" version="1.1" xmlns="http://www.w3.org/2000/svg" xmlns:xlink="http://www.w3.org/1999/xlink">
    <!-- Generator: Sketch 46.2 (44496) - http://www.bohemiancoding.com/sketch -->
    <title>Images/img_multi_platform</title>
    <desc>Created with Sketch.</desc>
    <defs></defs>
    <g id="Symbols" stroke="none" stroke-width="1" fill="none" fill-rule="evenodd">
        <g id="Images/img_multi_platform">
            <rect id="Rectangle" fill-opacity="0" fill="#FFFFFF" x="0" y="0" width="120" height="120"></rect>
            <g id="Group" transform="translate(40.000000, 6.500000)">
                <path d="M8,0.5 L72,0.5 C76.418278,0.5 80,4.081722 80,8.5 L80,104.5 C80,108.918278 76.418278,112.5 72,112.5 L8,112.5 C3.581722,112.5 5.41083001e-16,108.918278 0,104.5 L0,8.5 C-5.41083001e-16,4.081722 3.581722,0.5 8,0.5 Z" id="Rectangle-5" fill="#FBA700"></path>
                <path d="M33,3.5 L48,3.5 C48.5522847,3.5 49,3.94771525 49,4.5 C49,5.05228475 48.5522847,5.5 48,5.5 L33,5.5 C32.4477153,5.5 32,5.05228475 32,4.5 C32,3.94771525 32.4477153,3.5 33,3.5 Z" id="Rectangle-4" fill="#EC871B"></path>
                <circle id="Oval" fill="#EB811D" cx="40" cy="106.5" r="3"></circle>
                <path d="M10,8.5 L70,8.5 C72.209139,8.5 74,10.2692264 74,12.4516779 L74,96.5483221 C74,98.7307736 72.209139,100.5 70,100.5 L10,100.5 C7.790861,100.5 6,98.7307736 6,96.5483221 L6,12.4516779 C6,10.2692264 7.790861,8.5 10,8.5 Z" id="Rectangle" fill="#FFFFFF"></path>
                <polygon id="Rectangle-3" fill="#2EA342" points="6 16.5 74 16.5 74 20.5 6 20.5"></polygon>
                <path d="M74,12.34 C74,10.2192266 72.209139,8.5 70,8.5 L10,8.5 C7.790861,8.5 6,10.2192266 6,12.34 L6,16.5 L74,16.5 L74,12.34 Z" id="Combined-Shape" fill="#6EBF38"></path>
                <path d="M10,24.5 L70,24.5 L70,30.5245902 L10,30.5245902 L10,24.5 Z M10,32.9344262 L70,32.9344262 L70,38.9590164 L10,38.9590164 L10,32.9344262 Z M10,41.3688525 L70,41.3688525 L70,47.3934426 L10,47.3934426 L10,41.3688525 Z M10,49.8032787 L70,49.8032787 L70,55.8278689 L10,55.8278689 L10,49.8032787 Z M10,58.2377049 L70,58.2377049 L70,64.2622951 L10,64.2622951 L10,58.2377049 Z M10,66.6721311 L70,66.6721311 L70,72.6967213 L10,72.6967213 L10,66.6721311 Z M10,75.1065574 L70,75.1065574 L70,81.1311475 L10,81.1311475 L10,75.1065574 Z M10,83.5409836 L70,83.5409836 L70,89.5655738 L10,89.5655738 L10,83.5409836 Z M10,91.9754098 L70,91.9754098 L70,98 L10,98 L10,91.9754098 Z" id="Combined-Shape" fill="#D8D8D8"></path>
            </g>
            <g id="Group-2" transform="translate(13.750000, 39.625000)">
                <path d="M10,0 L41.25,0 C46.7728475,-1.01453063e-15 51.25,4.4771525 51.25,10 L51.25,69.375 C51.25,74.8978475 46.7728475,79.375 41.25,79.375 L10,79.375 C4.4771525,79.375 6.76353751e-16,74.8978475 0,69.375 L0,10 C-6.76353751e-16,4.4771525 4.4771525,1.01453063e-15 10,0 Z" id="Rectangle-6" fill="#3E71A1"></path>
                <path d="M6.75,8.125 L44.5,8.125 C46.1568542,8.125 47.5,9.46814575 47.5,11.125 L47.5,67 C47.5,68.6568542 46.1568542,70 44.5,70 L6.75,70 C5.09314575,70 3.75,68.6568542 3.75,67 L3.75,11.125 C3.75,9.46814575 5.09314575,8.125 6.75,8.125 Z" id="Rectangle-7" fill="#FFFFFF"></path>
                <path d="M47.5,16 L47.5,11.125 C47.5,9.46814575 46.1568542,8.125 44.5,8.125 L6.75,8.125 C5.09314575,8.125 3.75,9.46814575 3.75,11.125 L3.75,16 L3.75,13.125 L47.5,13.125 L47.5,16 L47.5,16 Z" id="Combined-Shape" fill="#70C028"></path>
                <polygon id="Rectangle-9" fill="#32A43A" points="3.75 13.125 47.5 13.125 47.5 15.625 3.75 15.625"></polygon>
                <path d="M19.375,3.75 L31.875,3.75 C32.220178,3.75 32.5,4.02982203 32.5,4.375 C32.5,4.72017797 32.220178,5 31.875,5 L19.375,5 C19.029822,5 18.75,4.72017797 18.75,4.375 C18.75,4.02982203 19.029822,3.75 19.375,3.75 Z" id="Rectangle-10" fill="#2F5A82"></path>
                <circle id="Oval-2" fill="#315B81" cx="25.625" cy="74.375" r="3.125"></circle>
                <path d="M6.25,17.5 L45,17.5 L45,21.875 L6.25,21.875 L6.25,17.5 Z M6.25,23.125 L45,23.125 L45,27.5 L6.25,27.5 L6.25,23.125 Z M6.25,28.75 L45,28.75 L45,33.125 L6.25,33.125 L6.25,28.75 Z M6.25,34.375 L45,34.375 L45,38.75 L6.25,38.75 L6.25,34.375 Z M6.25,40 L45,40 L45,44.375 L6.25,44.375 L6.25,40 Z M6.25,45.625 L45,45.625 L45,50 L6.25,50 L6.25,45.625 Z M6.25,51.25 L45,51.25 L45,55.625 L6.25,55.625 L6.25,51.25 Z M6.25,56.875 L45,56.875 L45,61.25 L6.25,61.25 L6.25,56.875 Z M6.25,62.5 L45,62.5 L45,66.875 L6.25,66.875 L6.25,62.5 Z" id="Combined-Shape" fill="#D8D8D8"></path>
            </g>
            <g id="Group-3" transform="translate(0.000000, 66.500000)">
                <path d="M6,0 L20.875,0 C24.1887085,-6.08718376e-16 26.875,2.6862915 26.875,6 L26.875,46.5 C26.875,49.8137085 24.1887085,52.5 20.875,52.5 L6,52.5 C2.6862915,52.5 4.05812251e-16,49.8137085 0,46.5 L0,6 C-4.05812251e-16,2.6862915 2.6862915,6.08718376e-16 6,0 Z" id="Rectangle-13" fill="#0F0A43"></path>
                <path d="M3.5,6.25 L23.375,6.25 C23.9272847,6.25 24.375,6.69771525 24.375,7.25 L24.375,45.25 C24.375,45.8022847 23.9272847,46.25 23.375,46.25 L3.5,46.25 C2.94771525,46.25 2.5,45.8022847 2.5,45.25 L2.5,7.25 C2.5,6.69771525 2.94771525,6.25 3.5,6.25 Z" id="Rectangle-14" fill="#FFFFFF"></path>
                <path d="M24.375,10.375 L24.375,7.25 C24.375,6.69771525 23.9272847,6.25 23.375,6.25 L3.5,6.25 C2.94771525,6.25 2.5,6.69771525 2.5,7.25 L2.5,10.375 L2.5,10.25 L24.375,10.25 L24.375,10.375 Z" id="Combined-Shape" fill="#73C105"></path>
                <polygon id="Rectangle-14-Copy-2" fill="#32A43A" points="2.5 12.5 24.375 12.5 24.375 10 2.5 10"></polygon>
                <polygon id="Rectangle-15" fill="#265460" points="8.75 2.5 17.5 2.5 17.5 3.75 8.75 3.75"></polygon>
                <circle id="Oval-3" fill="#265360" cx="13.125" cy="49.375" r="1.875"></circle>
                <path d="M4.375,14.375 L22.5,14.375 L22.5,17.5 L4.375,17.5 L4.375,14.375 Z M4.375,18.75 L22.5,18.75 L22.5,21.875 L4.375,21.875 L4.375,18.75 Z M4.375,23.125 L22.5,23.125 L22.5,26.25 L4.375,26.25 L4.375,23.125 Z M4.375,27.5 L22.5,27.5 L22.5,30.625 L4.375,30.625 L4.375,27.5 Z M4.375,31.875 L22.5,31.875 L22.5,35 L4.375,35 L4.375,31.875 Z M4.375,36.25 L22.5,36.25 L22.5,39.375 L4.375,39.375 L4.375,36.25 Z M4.375,40.625 L22.5,40.625 L22.5,43.75 L4.375,43.75 L4.375,40.625 Z" id="Combined-Shape" fill="#D8D8D8"></path>
            </g>
        </g>
    </g>
</svg>