<?xml version="1.0" encoding="UTF-8"?>
<svg width="120px" height="120px" viewBox="0 0 120 120" version="1.1" xmlns="http://www.w3.org/2000/svg" xmlns:xlink="http://www.w3.org/1999/xlink">
    <!-- Generator: Sketch 46.2 (44496) - http://www.bohemiancoding.com/sketch -->
    <title>Images/ic_subs_noads</title>
    <desc>Created with Sketch.</desc>
    <defs></defs>
    <g id="Symbols" stroke="none" stroke-width="1" fill="none" fill-rule="evenodd">
        <g id="Images/ic_subs_noads">
            <rect id="Rectangle" fill-opacity="0" fill="#FFFFFF" x="0" y="0" width="120" height="120"></rect>
            <circle id="Oval-7" fill="#2CAF5C" cx="60" cy="60" r="52.5"></circle>
            <path d="M34.4804906,69.7838487 L23.5528406,69.7838487 L21.6444776,75.6652497 L13.125,75.6652497 L25.2567361,44.182456 L32.7538765,44.182456 L44.976487,75.6652497 L36.4115722,75.6652497 L34.4804906,69.7838487 Z M25.4612036,63.9240704 L32.5721276,63.9240704 L29.0053063,53.0045575 L25.4612036,63.9240704 Z M47.3846594,75.6652497 L47.3846594,44.182456 L58.0396861,44.182456 C60.2812665,44.182456 62.3410663,44.5500398 64.2191472,45.2852187 C66.0972281,46.0203975 67.7140194,47.0546776 69.0695698,48.3880901 C70.4251201,49.7215027 71.4815248,51.3143662 72.2388155,53.1667285 C72.9961061,55.0190908 73.3747458,57.0552172 73.3747458,59.2751689 L73.3747458,60.5941596 C73.3747458,62.8285265 72.9961061,64.8682567 72.2388155,66.7134114 C71.4815248,68.558566 70.4251201,70.144222 69.0695698,71.4704269 C67.7140194,72.7966318 66.1048009,73.8273082 64.2418658,74.562487 C62.3789307,75.2976658 60.3418493,75.6652497 58.1305605,75.6652497 L47.3846594,75.6652497 Z M55.3588904,50.0422342 L55.3588904,69.8270943 L58.1305605,69.8270943 C60.4175784,69.8270943 62.1744664,69.0522851 63.4012773,67.5026435 C64.6280882,65.9530019 65.2414845,63.6501969 65.2414845,60.5941596 L65.2414845,59.2319233 C65.2414845,56.1903012 64.6280882,53.8983075 63.4012773,52.3558736 C62.1744664,50.8134396 60.3872872,50.0422342 58.0396861,50.0422342 L55.3588904,50.0422342 Z M94.5257689,67.2972269 C94.5257689,66.8071077 94.4538274,66.3638448 94.3099422,65.9674248 C94.1660569,65.5710049 93.8820772,65.1962135 93.4579944,64.8430393 C93.0339116,64.4898652 92.4394474,64.1403001 91.6745838,63.7943336 C90.9097202,63.4483672 89.9063251,63.0807833 88.6643683,62.691571 C87.2103702,62.2302823 85.8094035,61.7113403 84.461426,61.1347295 C83.1134486,60.5581187 81.9169473,59.8734036 80.8718861,59.0805637 C79.826825,58.2877238 78.9900313,57.3615566 78.36148,56.3020342 C77.7329288,55.2425118 77.4186579,54.0064209 77.4186579,52.5937243 C77.4186579,51.2386889 77.7367152,50.017013 78.3728393,48.9286601 C79.0089635,47.8403072 79.8949803,46.9141399 81.0309164,46.1501306 C82.1668524,45.3861212 83.5110232,44.795104 85.0634691,44.3770611 C86.615915,43.9590183 88.3084343,43.75 90.1410778,43.75 C91.9434296,43.75 93.6018713,43.9806409 95.1164527,44.4419295 C96.6310341,44.9032182 97.9335545,45.5591032 99.0240531,46.4096041 C100.114552,47.2601051 100.966491,48.2871777 101.579896,49.4908528 C102.193302,50.6945279 102.5,52.0387318 102.5,53.5235046 L94.5484875,53.5235046 C94.5484875,52.9324786 94.4538276,52.3883102 94.264505,51.8909834 C94.0751823,51.3936566 93.7874161,50.9684125 93.4011979,50.6152383 C93.0149796,50.2620642 92.5378937,49.9845744 91.9699256,49.7827606 C91.4019576,49.5809468 90.7317654,49.4800414 89.9593289,49.4800414 C89.2020382,49.4800414 88.5356324,49.562928 87.9600915,49.7287036 C87.3845506,49.8944792 86.9036782,50.1251201 86.51746,50.4206332 C86.1312417,50.7161462 85.8396892,51.0549 85.6427936,51.4369047 C85.445898,51.8189093 85.3474517,52.2261346 85.3474517,52.6585927 C85.3474517,53.1342967 85.4875484,53.5631445 85.7677459,53.9451492 C86.0479435,54.3271539 86.4493015,54.6875302 86.9718321,55.0262891 C87.4943627,55.365048 88.1304773,55.6821792 88.8801951,55.9776922 C89.6299129,56.2732053 90.4742793,56.5651101 91.4133198,56.8534155 C93.1702342,57.3867805 94.7378024,57.9777978 96.1160714,58.626485 C97.4943405,59.2751721 98.6567642,60.0175474 99.6033776,60.8536331 C100.549991,61.6897188 101.269406,62.6339049 101.761645,63.6862197 C102.253884,64.7385344 102.5,65.9277764 102.5,67.2539813 C102.5,68.6666778 102.208447,69.9243913 101.625334,71.0271595 C101.04222,72.1299277 100.216785,73.056095 99.1490055,73.8056891 C98.0812256,74.5552831 96.7938507,75.1246778 95.2868423,75.5138901 C93.7798338,75.9031024 92.1024601,76.0977056 90.2546708,76.0977056 C89.1187348,76.0977056 87.9903886,76.0076116 86.8695984,75.8274207 C85.7488082,75.6472298 84.6772579,75.36974 83.6549155,74.994943 C82.6325731,74.6201459 81.6784011,74.1480529 80.792371,73.5786497 C79.9063409,73.0092465 79.1414888,72.3281352 78.4977917,71.5352953 C77.8540946,70.7424554 77.3467175,69.8415145 76.975645,68.8324456 C76.6045726,67.8233766 76.4190391,66.6990024 76.4190391,65.4592891 L84.4159888,65.4592891 C84.4159888,66.3818664 84.5447263,67.1566756 84.8022051,67.7837399 C85.059684,68.4108041 85.4383236,68.9189348 85.9381355,69.3081471 C86.4379473,69.6973594 87.0475572,69.9748492 87.7669834,70.1406248 C88.4864095,70.3064004 89.3156304,70.389287 90.2546708,70.389287 C91.0119615,70.389287 91.6594353,70.3064004 92.1971117,70.1406248 C92.7347881,69.9748492 93.1777965,69.7514159 93.5261502,69.4703181 C93.8745039,69.1892203 94.1281925,68.8612778 94.2872236,68.4864808 C94.4462546,68.1116838 94.5257689,67.7152698 94.5257689,67.2972269 Z" id="ADS" fill="#FFFFFF"></path>
            <path d="M28.2197241,66.25 C29.4962863,83.0311193 43.5169256,96.25 60.625,96.25 C77.7330744,96.25 91.7537137,83.0311193 93.0302759,66.25 L28.2197241,66.25 Z M28.4169502,59.375 L92.8330498,59.375 C90.6963039,43.4946856 77.0906017,31.25 60.625,31.25 C44.1593983,31.25 30.5536961,43.4946856 28.4169502,59.375 Z M59.375,103.125 C37.628788,103.125 20,85.496212 20,63.75 C20,42.003788 37.628788,24.375 59.375,24.375 C81.121212,24.375 98.75,42.003788 98.75,63.75 C98.75,85.496212 81.121212,103.125 59.375,103.125 Z" id="Combined-Shape-Copy" fill-opacity="0.26" fill="#000000" transform="translate(59.375000, 63.750000) rotate(-45.000000) translate(-59.375000, -63.750000) "></path>
            <path d="M28.2197241,63.75 C29.4962863,80.5311193 43.5169256,93.75 60.625,93.75 C77.7330744,93.75 91.7537137,80.5311193 93.0302759,63.75 L28.2197241,63.75 Z M28.4169502,56.875 L92.8330498,56.875 C90.6963039,40.9946856 77.0906017,28.75 60.625,28.75 C44.1593983,28.75 30.5536961,40.9946856 28.4169502,56.875 Z M59.375,100.625 C37.628788,100.625 20,82.996212 20,61.25 C20,39.503788 37.628788,21.875 59.375,21.875 C81.121212,21.875 98.75,39.503788 98.75,61.25 C98.75,82.996212 81.121212,100.625 59.375,100.625 Z" id="Combined-Shape" fill="#FF1C17" transform="translate(59.375000, 61.250000) rotate(-45.000000) translate(-59.375000, -61.250000) "></path>
        </g>
    </g>
</svg>